spoonbender-grotesk-regular.ufo
<glyph name="A" format="2">
	<unicode hex="0041"/>
	<advance width="752"/>
	<outline>
		<contour>
			<point x="48" y="0" type="line"/>
			<point x="112" y="0" type="line"/>
			<point x="128" y="16" type="line"/>
			<point x="200" y="216" type="line"/>
			<point x="216" y="232" type="line"/>
			<point x="536" y="232" type="line"/>
			<point x="552" y="216" type="line"/>
			<point x="624" y="16" type="line"/>
			<point x="640" y="0" type="line"/>
			<point x="704" y="0" type="line"/>
			<point x="720" y="16" type="line"/>
			<point x="720" y="96" type="line"/>
			<point x="472" y="784" type="line"/>
			<point x="456" y="800" type="line"/>
			<point x="296" y="800" type="line"/>
			<point x="280" y="784" type="line"/>
			<point x="32" y="96" type="line"/>
			<point x="32" y="16" type="line"/>
		</contour>
		<contour>
			<point x="264" y="328" type="line"/>
			<point x="248" y="344" type="line"/>
			<point x="368" y="704" type="line"/>
			<point x="384" y="704" type="line"/>
			<point x="504" y="344" type="line"/>
			<point x="488" y="328" type="line"/>
		</contour>
	</outline>
</glyph>
<glyph name="B" format="2">
	<unicode hex="0042"/>
	<advance width="736"/>
	<outline>
		<contour>
			<point x="80" y="0" type="line"/>
			<point x="448" y="0" type="line" smooth="yes"/>
			<point x="608" y="0"/>
			<point x="704" y="76"/>
			<point x="704" y="232" type="curve" smooth="yes"/>
			<point x="704" y="336"/>
			<point x="636" y="376"/>
			<point x="568" y="400" type="curve"/>
			<point x="568" y="416" type="line"/>
			<point x="624" y="440"/>
			<point x="672" y="512"/>
			<point x="672" y="584" type="curve" smooth="yes"/>
			<point x="672" y="724"/>
			<point x="552" y="768"/>
			<point x="412" y="768" type="curve" smooth="yes"/>
			<point x="80" y="768" type="line"/>
			<point x="64" y="752" type="line"/>
			<point x="64" y="16" type="line"/>
		</contour>
		<contour>
			<point x="188" y="448" type="line"/>
			<point x="176" y="460" type="line"/>
			<point x="176" y="664" type="line"/>
			<point x="184" y="672" type="line"/>
			<point x="408" y="672" type="line" smooth="yes"/>
			<point x="504" y="672"/>
			<point x="560" y="664"/>
			<point x="560" y="584" type="curve" smooth="yes"/>
			<point x="560" y="504"/>
			<point x="504" y="448"/>
			<point x="408" y="448" type="curve" smooth="yes"/>
		</contour>
		<contour>
			<point x="192" y="96" type="line"/>
			<point x="176" y="112" type="line"/>
			<point x="176" y="340" type="line"/>
			<point x="188" y="352" type="line"/>
			<point x="448" y="352" type="line" smooth="yes"/>
			<point x="536" y="352"/>
			<point x="592" y="328"/>
			<point x="592" y="232" type="curve" smooth="yes"/>
			<point x="592" y="136"/>
			<point x="536" y="96"/>
			<point x="448" y="96" type="curve" smooth="yes"/>
		</contour>
	</outline>
</glyph>
<glyph name="D" format="2">
	<unicode hex="0044"/>
	<advance width="768"/>
	<outline>
		<contour>
			<point x="80" y="0" type="line"/>
			<point x="356" y="0" type="line" smooth="yes"/>
			<point x="596" y="0"/>
			<point x="712" y="160"/>
			<point x="712" y="400" type="curve" smooth="yes"/>
			<point x="712" y="640"/>
			<point x="596" y="800"/>
			<point x="356" y="800" type="curve" smooth="yes"/>
			<point x="80" y="800" type="line"/>
			<point x="64" y="784" type="line"/>
			<point x="64" y="16" type="line"/>
		</contour>
		<contour>
			<point x="188" y="96" type="line"/>
			<point x="176" y="108" type="line"/>
			<point x="176" y="692" type="line"/>
			<point x="188" y="704" type="line"/>
			<point x="320" y="704" type="line" smooth="yes"/>
			<point x="516" y="704"/>
			<point x="596" y="596"/>
			<point x="596" y="400" type="curve" smooth="yes"/>
			<point x="596" y="208"/>
			<point x="516" y="96"/>
			<point x="320" y="96" type="curve" smooth="yes"/>
		</contour>
	</outline>
</glyph>
<glyph name="E" format="2">
	<unicode hex="0045"/>
	<advance width="672"/>
	<outline>
		<contour>
			<point x="48" y="0" type="line"/>
			<point x="560" y="0" type="line"/>
			<point x="576" y="16" type="line"/>
			<point x="576" y="80" type="line"/>
			<point x="560" y="96" type="line"/>
			<point x="160" y="96" type="line"/>
			<point x="144" y="112" type="line"/>
			<point x="144" y="352" type="line"/>
			<point x="160" y="368" type="line"/>
			<point x="536" y="368" type="line"/>
			<point x="552" y="384" type="line"/>
			<point x="552" y="448" type="line"/>
			<point x="536" y="464" type="line"/>
			<point x="160" y="464" type="line"/>
			<point x="144" y="480" type="line"/>
			<point x="144" y="688" type="line"/>
			<point x="160" y="704" type="line"/>
			<point x="560" y="704" type="line"/>
			<point x="576" y="720" type="line"/>
			<point x="576" y="784" type="line"/>
			<point x="560" y="800" type="line"/>
			<point x="48" y="800" type="line"/>
			<point x="32" y="784" type="line"/>
			<point x="32" y="16" type="line"/>
		</contour>
	</outline>
</glyph>
<glyph name="F" format="2">
	<unicode hex="0046"/>
	<advance width="640"/>
	<outline>
		<contour>
			<point x="112" y="0" type="line"/>
			<point x="192" y="0" type="line"/>
			<point x="208" y="16" type="line"/>
			<point x="208" y="344" type="line"/>
			<point x="220" y="356" type="line"/>
			<point x="536" y="356" type="line"/>
			<point x="552" y="372" type="line"/>
			<point x="552" y="436" type="line"/>
			<point x="536" y="452" type="line"/>
			<point x="220" y="452" type="line"/>
			<point x="208" y="464" type="line"/>
			<point x="208" y="692" type="line"/>
			<point x="220" y="704" type="line"/>
			<point x="600" y="704" type="line"/>
			<point x="616" y="720" type="line"/>
			<point x="616" y="784" type="line"/>
			<point x="600" y="800" type="line"/>
			<point x="112" y="800" type="line"/>
			<point x="96" y="784" type="line"/>
			<point x="96" y="16" type="line"/>
		</contour>
	</outline>
</glyph>
<glyph name="H" format="2">
	<unicode hex="0048"/>
	<advance width="688"/>
	<outline>
		<contour>
			<point x="48" y="0" type="line"/>
			<point x="144" y="0" type="line"/>
			<point x="160" y="16" type="line"/>
			<point x="160" y="336" type="line"/>
			<point x="176" y="352" type="line"/>
			<point x="512" y="352" type="line"/>
			<point x="528" y="336" type="line"/>
			<point x="528" y="16" type="line"/>
			<point x="544" y="0" type="line"/>
			<point x="640" y="0" type="line"/>
			<point x="656" y="16" type="line"/>
			<point x="656" y="752" type="line"/>
			<point x="640" y="768" type="line"/>
			<point x="544" y="768" type="line"/>
			<point x="528" y="752" type="line"/>
			<point x="528" y="464" type="line"/>
			<point x="512" y="448" type="line"/>
			<point x="176" y="448" type="line"/>
			<point x="160" y="464" type="line"/>
			<point x="160" y="752" type="line"/>
			<point x="144" y="768" type="line"/>
			<point x="48" y="768" type="line"/>
			<point x="32" y="752" type="line"/>
			<point x="32" y="16" type="line"/>
		</contour>
	</outline>
</glyph>
<glyph name="I" format="2">
	<unicode hex="0049"/>
	<advance width="192"/>
	<outline>
		<contour>
			<point x="48" y="0" type="line"/>
			<point x="144" y="0" type="line"/>
			<point x="160" y="16" type="line"/>
			<point x="160" y="752" type="line"/>
			<point x="144" y="768" type="line"/>
			<point x="48" y="768" type="line"/>
			<point x="32" y="752" type="line"/>
			<point x="32" y="16" type="line"/>
		</contour>
	</outline>
</glyph>
<glyph name="P" format="2">
	<unicode hex="0050"/>
	<advance width="708"/>
	<outline>
		<contour>
			<point x="104" y="0" type="line"/>
			<point x="184" y="0" type="line"/>
			<point x="200" y="16" type="line"/>
			<point x="200" y="300" type="line"/>
			<point x="212" y="312" type="line"/>
			<point x="404" y="312" type="line" smooth="yes"/>
			<point x="552" y="312"/>
			<point x="668" y="380"/>
			<point x="668" y="540" type="curve" smooth="yes"/>
			<point x="668" y="700"/>
			<point x="564" y="768"/>
			<point x="404" y="768" type="curve" smooth="yes"/>
			<point x="104" y="768" type="line"/>
			<point x="88" y="752" type="line"/>
			<point x="88" y="16" type="line"/>
		</contour>
		<contour>
			<point x="212" y="408" type="line"/>
			<point x="200" y="420" type="line"/>
			<point x="200" y="660" type="line"/>
			<point x="212" y="672" type="line"/>
			<point x="404" y="672" type="line" smooth="yes"/>
			<point x="508" y="672"/>
			<point x="552" y="632"/>
			<point x="552" y="540" type="curve" smooth="yes"/>
			<point x="552" y="448"/>
			<point x="508" y="408"/>
			<point x="404" y="408" type="curve" smooth="yes"/>
		</contour>
	</outline>
</glyph>
<glyph name="T" format="2">
	<unicode hex="0054"/>
	<advance width="624"/>
	<outline>
		<contour>
			<point x="272" y="0" type="line"/>
			<point x="352" y="0" type="line"/>
			<point x="368" y="16" type="line"/>
			<point x="368" y="656" type="line"/>
			<point x="380" y="668" type="line"/>
			<point x="584" y="668" type="line"/>
			<point x="600" y="684" type="line"/>
			<point x="600" y="752" type="line"/>
			<point x="584" y="768" type="line"/>
			<point x="40" y="768" type="line"/>
			<point x="24" y="752" type="line"/>
			<point x="24" y="684" type="line"/>
			<point x="40" y="668" type="line"/>
			<point x="244" y="668" type="line"/>
			<point x="256" y="656" type="line"/>
			<point x="256" y="16" type="line"/>
		</contour>
	</outline>
</glyph>
<glyph name="Y" format="2">
	<unicode hex="0059"/>
	<advance width="624"/>
	<outline>
		<contour>
			<point x="368" y="320" type="line"/>
			<point x="608" y="708" type="line"/>
			<point x="608" y="784" type="line"/>
			<point x="592" y="800" type="line"/>
			<point x="552" y="800" type="line"/>
			<point x="528" y="784" type="line"/>
			<point x="324" y="440" type="line"/>
			<point x="300" y="440" type="line"/>
			<point x="96" y="784" type="line"/>
			<point x="72" y="800" type="line"/>
			<point x="32" y="800" type="line"/>
			<point x="16" y="784" type="line"/>
			<point x="16" y="708" type="line"/>
			<point x="256" y="320" type="line"/>
			<point x="256" y="16" type="line"/>
			<point x="272" y="0" type="line"/>
			<point x="352" y="0" type="line"/>
			<point x="368" y="16" type="line"/>
		</contour>
	</outline>
	<anchor name="bottom" x="316" y="0"/>
	<anchor name="top" x="316" y="800"/>
	<anchor name="topleft" x="20" y="800"/>
</glyph>
<glyph name="Z" format="2">
	<unicode hex="005A"/>
	<advance width="604"/>
	<outline>
		<contour>
			<point x="32" y="0" type="line"/>
			<point x="572" y="0" type="line"/>
			<point x="588" y="16" type="line"/>
			<point x="588" y="84" type="line"/>
			<point x="572" y="100" type="line"/>
			<point x="156" y="100" type="line"/>
			<point x="156" y="116" type="line"/>
			<point x="552" y="676" type="line"/>
			<point x="568" y="712" type="line"/>
			<point x="568" y="784" type="line"/>
			<point x="552" y="800" type="line"/>
			<point x="44" y="800" type="line"/>
			<point x="28" y="784" type="line"/>
			<point x="28" y="716" type="line"/>
			<point x="44" y="700" type="line"/>
			<point x="428" y="700" type="line"/>
			<point x="428" y="684" type="line"/>
			<point x="28" y="128" type="line"/>
			<point x="16" y="104" type="line"/>
			<point x="16" y="16" type="line"/>
		</contour>
	</outline>
	<anchor name="bottom" x="340" y="0"/>
	<anchor name="center" x="340" y="352"/>
	<anchor name="top" x="360" y="800"/>
</glyph>
<glyph name="a" format="2">
	<unicode hex="0061"/>
	<advance width="588"/>
	<outline>
		<contour>
			<point x="228" y="-16" type="curve" smooth="yes"/>
			<point x="308" y="-16"/>
			<point x="372" y="4"/>
			<point x="420" y="68" type="curve"/>
			<point x="436" y="68" type="line"/>
			<point x="440" y="32"/>
			<point x="472" y="0"/>
			<point x="508" y="0" type="curve" smooth="yes"/>
			<point x="556" y="0" type="line"/>
			<point x="572" y="16" type="line"/>
			<point x="572" y="72" type="line"/>
			<point x="556" y="88" type="line"/>
			<point x="528" y="88"/>
			<point x="524" y="94"/>
			<point x="524" y="120" type="curve" smooth="yes"/>
			<point x="524" y="376" type="line" smooth="yes"/>
			<point x="524" y="528"/>
			<point x="448" y="592"/>
			<point x="296" y="592" type="curve" smooth="yes"/>
			<point x="216" y="592"/>
			<point x="72" y="556"/>
			<point x="72" y="416" type="curve"/>
			<point x="88" y="400" type="line"/>
			<point x="152" y="400" type="line"/>
			<point x="168" y="416" type="line"/>
			<point x="176" y="480"/>
			<point x="232" y="504"/>
			<point x="296" y="504" type="curve" smooth="yes"/>
			<point x="376" y="504"/>
			<point x="424" y="472"/>
			<point x="424" y="392" type="curve" smooth="yes"/>
			<point x="424" y="356" type="line"/>
			<point x="412" y="344" type="line"/>
			<point x="328" y="344" type="line" smooth="yes"/>
			<point x="156" y="344"/>
			<point x="32" y="304"/>
			<point x="32" y="160" type="curve" smooth="yes"/>
			<point x="32" y="56"/>
			<point x="120" y="-16"/>
		</contour>
		<contour>
			<point x="244" y="68" type="curve" smooth="yes"/>
			<point x="184" y="68"/>
			<point x="136" y="100"/>
			<point x="136" y="160" type="curve" smooth="yes"/>
			<point x="136" y="256"/>
			<point x="240" y="268"/>
			<point x="336" y="268" type="curve" smooth="yes"/>
			<point x="412" y="268" type="line"/>
			<point x="424" y="256" type="line"/>
			<point x="424" y="200" type="line" smooth="yes"/>
			<point x="424" y="104"/>
			<point x="340" y="68"/>
		</contour>
	</outline>
</glyph>
<glyph name="b" format="2">
	<unicode hex="0062"/>
	<advance width="684"/>
	<outline>
		<contour>
			<point x="104" y="0" type="line"/>
			<point x="168" y="0" type="line"/>
			<point x="184" y="16" type="line"/>
			<point x="192" y="64" type="line"/>
			<point x="208" y="64" type="line"/>
			<point x="240" y="20"/>
			<point x="308" y="-16"/>
			<point x="384" y="-16" type="curve" smooth="yes"/>
			<point x="544" y="-16"/>
			<point x="620" y="124"/>
			<point x="620" y="288" type="curve" smooth="yes"/>
			<point x="620" y="452"/>
			<point x="544" y="592"/>
			<point x="384" y="592" type="curve" smooth="yes"/>
			<point x="296" y="592"/>
			<point x="240" y="556"/>
			<point x="208" y="512" type="curve"/>
			<point x="192" y="520" type="line"/>
			<point x="192" y="784" type="line"/>
			<point x="176" y="800" type="line"/>
			<point x="104" y="800" type="line"/>
			<point x="88" y="784" type="line"/>
			<point x="88" y="16" type="line"/>
		</contour>
		<contour>
			<point x="352" y="496" type="curve" smooth="yes"/>
			<point x="452" y="496"/>
			<point x="512" y="424"/>
			<point x="512" y="288" type="curve" smooth="yes"/>
			<point x="512" y="152"/>
			<point x="452" y="80"/>
			<point x="352" y="80" type="curve" smooth="yes"/>
			<point x="264" y="80"/>
			<point x="192" y="152"/>
			<point x="192" y="288" type="curve" smooth="yes"/>
			<point x="192" y="424"/>
			<point x="264" y="496"/>
		</contour>
	</outline>
</glyph>
<glyph name="d" format="2">
	<unicode hex="0064"/>
	<advance width="684"/>
	<outline>
		<contour>
			<point x="580" y="0" type="line"/>
			<point x="596" y="16" type="line"/>
			<point x="596" y="784" type="line"/>
			<point x="580" y="800" type="line"/>
			<point x="508" y="800" type="line"/>
			<point x="492" y="784" type="line"/>
			<point x="492" y="520" type="line"/>
			<point x="476" y="512" type="line"/>
			<point x="444" y="556"/>
			<point x="388" y="592"/>
			<point x="300" y="592" type="curve" smooth="yes"/>
			<point x="140" y="592"/>
			<point x="64" y="452"/>
			<point x="64" y="288" type="curve" smooth="yes"/>
			<point x="64" y="124"/>
			<point x="140" y="-16"/>
			<point x="300" y="-16" type="curve" smooth="yes"/>
			<point x="376" y="-16"/>
			<point x="444" y="20"/>
			<point x="476" y="64" type="curve"/>
			<point x="492" y="64" type="line"/>
			<point x="500" y="16" type="line"/>
			<point x="516" y="0" type="line"/>
		</contour>
		<contour>
			<point x="332" y="496" type="curve" smooth="yes"/>
			<point x="420" y="496"/>
			<point x="492" y="424"/>
			<point x="492" y="288" type="curve" smooth="yes"/>
			<point x="492" y="152"/>
			<point x="420" y="80"/>
			<point x="332" y="80" type="curve" smooth="yes"/>
			<point x="232" y="80"/>
			<point x="172" y="152"/>
			<point x="172" y="288" type="curve" smooth="yes"/>
			<point x="172" y="424"/>
			<point x="232" y="496"/>
		</contour>
	</outline>
</glyph>
<glyph name="e" format="2">
	<unicode hex="0065"/>
	<advance width="652"/>
	<outline>
		<contour>
			<point x="184" y="344" type="line"/>
			<point x="172" y="356" type="line"/>
			<point x="180" y="444"/>
			<point x="232" y="504"/>
			<point x="328" y="504" type="curve" smooth="yes"/>
			<point x="432" y="504"/>
			<point x="484" y="444"/>
			<point x="492" y="356" type="curve"/>
			<point x="480" y="344" type="line"/>
		</contour>
		<contour>
			<point x="336" y="-16" type="curve" smooth="yes"/>
			<point x="496" y="-16"/>
			<point x="568" y="84"/>
			<point x="580" y="156" type="curve"/>
			<point x="580" y="172" type="line"/>
			<point x="564" y="188" type="line"/>
			<point x="504" y="188" type="line"/>
			<point x="488" y="172" type="line"/>
			<point x="472" y="108"/>
			<point x="432" y="76"/>
			<point x="336" y="76" type="curve" smooth="yes"/>
			<point x="232" y="76"/>
			<point x="172" y="144"/>
			<point x="172" y="252" type="curve"/>
			<point x="184" y="264" type="line"/>
			<point x="580" y="264" type="line"/>
			<point x="596" y="280" type="line"/>
			<point x="596" y="496"/>
			<point x="476" y="592"/>
			<point x="328" y="592" type="curve" smooth="yes"/>
			<point x="168" y="592"/>
			<point x="64" y="464"/>
			<point x="64" y="288" type="curve" smooth="yes"/>
			<point x="64" y="112"/>
			<point x="164" y="-16"/>
		</contour>
	</outline>
	<anchor name="bottom" x="340" y="0"/>
	<anchor name="ogonek" x="448" y="60"/>
	<anchor name="top" x="332" y="576"/>
</glyph>
<glyph name="h" format="2">
	<unicode hex="0068"/>
	<advance width="624"/>
	<outline>
		<contour>
			<point x="80" y="0" type="line"/>
			<point x="152" y="0" type="line"/>
			<point x="168" y="16" type="line"/>
			<point x="168" y="352" type="line" smooth="yes"/>
			<point x="168" y="448"/>
			<point x="212" y="504"/>
			<point x="308" y="504" type="curve" smooth="yes"/>
			<point x="404" y="504"/>
			<point x="448" y="448"/>
			<point x="448" y="352" type="curve" smooth="yes"/>
			<point x="448" y="16" type="line"/>
			<point x="464" y="0" type="line"/>
			<point x="536" y="0" type="line"/>
			<point x="552" y="16" type="line"/>
			<point x="552" y="336" type="line" smooth="yes"/>
			<point x="552" y="496"/>
			<point x="500" y="592"/>
			<point x="340" y="592" type="curve" smooth="yes"/>
			<point x="268" y="592"/>
			<point x="216" y="560"/>
			<point x="180" y="512" type="curve"/>
			<point x="168" y="512" type="line"/>
			<point x="168" y="784" type="line"/>
			<point x="152" y="800" type="line"/>
			<point x="80" y="800" type="line"/>
			<point x="64" y="784" type="line"/>
			<point x="64" y="16" type="line"/>
		</contour>
	</outline>
</glyph>
<glyph name="i" format="2">
	<unicode hex="0069"/>
	<advance width="288"/>
	<outline>
		<contour>
			<point x="104" y="684" type="line"/>
			<point x="136" y="684" type="line"/>
			<point x="152" y="700" type="line"/>
			<point x="152" y="784" type="line"/>
			<point x="136" y="800" type="line"/>
			<point x="104" y="800" type="line"/>
			<point x="88" y="784" type="line"/>
			<point x="88" y="700" type="line"/>
		</contour>
		<contour>
			<point x="108" y="0" type="line"/>
			<point x="180" y="0" type="line"/>
			<point x="196" y="16" type="line"/>
			<point x="196" y="560" type="line"/>
			<point x="180" y="576" type="line"/>
			<point x="108" y="576" type="line"/>
			<point x="92" y="560" type="line"/>
			<point x="92" y="16" type="line"/>
		</contour>
	</outline>
</glyph>
<glyph name="l" format="2">
	<unicode hex="006C"/>
	<advance width="280"/>
	<outline>
		<contour>
			<point x="104" y="0" type="line"/>
			<point x="176" y="0" type="line"/>
			<point x="192" y="16" type="line"/>
			<point x="192" y="784" type="line"/>
			<point x="176" y="800" type="line"/>
			<point x="104" y="800" type="line"/>
			<point x="88" y="784" type="line"/>
			<point x="88" y="16" type="line"/>
		</contour>
	</outline>
	<anchor name="bottom" x="140" y="0"/>
	<anchor name="center" x="140" y="376"/>
	<anchor name="top" x="140" y="800"/>
	<anchor name="topright" x="240" y="836"/>
</glyph>
<glyph name="n" format="2">
	<unicode hex="006E"/>
	<advance width="552"/>
	<outline>
		<contour>
			<point x="48" y="0" type="line"/>
			<point x="136" y="0" type="line"/>
			<point x="152" y="16" type="line"/>
			<point x="152" y="328" type="line" smooth="yes"/>
			<point x="152" y="424"/>
			<point x="184" y="480"/>
			<point x="280" y="480" type="curve" smooth="yes"/>
			<point x="376" y="480"/>
			<point x="408" y="424"/>
			<point x="408" y="328" type="curve" smooth="yes"/>
			<point x="408" y="16" type="line"/>
			<point x="424" y="0" type="line"/>
			<point x="512" y="0" type="line"/>
			<point x="528" y="16" type="line"/>
			<point x="528" y="344" type="line" smooth="yes"/>
			<point x="528" y="512"/>
			<point x="456" y="592"/>
			<point x="328" y="592" type="curve" smooth="yes"/>
			<point x="232" y="592"/>
			<point x="184" y="560"/>
			<point x="152" y="512" type="curve"/>
			<point x="144" y="512" type="line"/>
			<point x="136" y="560" type="line"/>
			<point x="120" y="576" type="line"/>
			<point x="48" y="576" type="line"/>
			<point x="32" y="560" type="line"/>
			<point x="32" y="16" type="line"/>
		</contour>
	</outline>
</glyph>
<glyph name="o" format="2">
	<unicode hex="006F"/>
	<advance width="608"/>
	<outline>
		<contour>
			<point x="304" y="-16" type="curve" smooth="yes"/>
			<point x="480" y="-16"/>
			<point x="592" y="112"/>
			<point x="592" y="288" type="curve" smooth="yes"/>
			<point x="592" y="464"/>
			<point x="480" y="592"/>
			<point x="304" y="592" type="curve" smooth="yes"/>
			<point x="128" y="592"/>
			<point x="16" y="464"/>
			<point x="16" y="288" type="curve" smooth="yes"/>
			<point x="16" y="112"/>
			<point x="128" y="-16"/>
		</contour>
		<contour>
			<point x="304" y="88" type="curve" smooth="yes"/>
			<point x="184" y="88"/>
			<point x="144" y="168"/>
			<point x="144" y="288" type="curve" smooth="yes"/>
			<point x="144" y="408"/>
			<point x="184" y="488"/>
			<point x="304" y="488" type="curve" smooth="yes"/>
			<point x="424" y="488"/>
			<point x="464" y="408"/>
			<point x="464" y="288" type="curve" smooth="yes"/>
			<point x="464" y="168"/>
			<point x="424" y="88"/>
		</contour>
	</outline>
</glyph>
<glyph name="r" format="2">
	<unicode hex="0072"/>
	<advance width="412"/>
	<outline>
		<contour>
			<point x="104" y="0" type="line"/>
			<point x="176" y="0" type="line"/>
			<point x="192" y="16" type="line"/>
			<point x="192" y="320" type="line" smooth="yes"/>
			<point x="192" y="432"/>
			<point x="228" y="488"/>
			<point x="300" y="488" type="curve" smooth="yes"/>
			<point x="356" y="488" type="line"/>
			<point x="372" y="504" type="line"/>
			<point x="372" y="560" type="line"/>
			<point x="356" y="576" type="line"/>
			<point x="320" y="576" type="line" smooth="yes"/>
			<point x="272" y="576"/>
			<point x="240" y="560"/>
			<point x="204" y="512" type="curve"/>
			<point x="188" y="512" type="line"/>
			<point x="180" y="560" type="line"/>
			<point x="164" y="576" type="line"/>
			<point x="104" y="576" type="line"/>
			<point x="88" y="560" type="line"/>
			<point x="88" y="16" type="line"/>
		</contour>
	</outline>
	<anchor name="bottom" x="136" y="0"/>
	<anchor name="top" x="256" y="576"/>
</glyph>
<glyph name="t" format="2">
	<unicode hex="0074"/>
	<advance width="404"/>
	<outline>
		<contour>
			<point x="264" y="0" type="curve" smooth="yes"/>
			<point x="344" y="0" type="line"/>
			<point x="360" y="16" type="line"/>
			<point x="360" y="72" type="line"/>
			<point x="344" y="88" type="line"/>
			<point x="280" y="88" type="line" smooth="yes"/>
			<point x="248" y="88"/>
			<point x="232" y="104"/>
			<point x="232" y="136" type="curve" smooth="yes"/>
			<point x="232" y="476" type="line"/>
			<point x="244" y="488" type="line"/>
			<point x="344" y="488" type="line"/>
			<point x="360" y="504" type="line"/>
			<point x="360" y="560" type="line"/>
			<point x="344" y="576" type="line"/>
			<point x="244" y="576" type="line"/>
			<point x="232" y="588" type="line"/>
			<point x="232" y="720" type="line"/>
			<point x="216" y="736" type="line"/>
			<point x="144" y="736" type="line"/>
			<point x="128" y="720" type="line"/>
			<point x="128" y="588" type="line"/>
			<point x="116" y="576" type="line"/>
			<point x="56" y="576" type="line"/>
			<point x="40" y="560" type="line"/>
			<point x="40" y="504" type="line"/>
			<point x="56" y="488" type="line"/>
			<point x="116" y="488" type="line"/>
			<point x="128" y="476" type="line"/>
			<point x="128" y="120" type="line" smooth="yes"/>
			<point x="128" y="32"/>
			<point x="176" y="0"/>
		</contour>
	</outline>
	<anchor name="bottom" x="216" y="0"/>
	<anchor name="center" x="164" y="260"/>
	<anchor name="topright" x="272" y="764"/>
</glyph>
<glyph name="y" format="2">
	<unicode hex="0079"/>
	<advance width="560"/>
	<outline>
		<contour>
			<point x="96" y="-200" type="line"/>
			<point x="144" y="-200" type="line" smooth="yes"/>
			<point x="240" y="-200"/>
			<point x="268" y="-196"/>
			<point x="340" y="0" type="curve" smooth="yes"/>
			<point x="528" y="500" type="line"/>
			<point x="528" y="560" type="line"/>
			<point x="512" y="576" type="line"/>
			<point x="452" y="576" type="line"/>
			<point x="436" y="560" type="line"/>
			<point x="288" y="144" type="line"/>
			<point x="272" y="144" type="line"/>
			<point x="124" y="560" type="line"/>
			<point x="108" y="576" type="line"/>
			<point x="48" y="576" type="line"/>
			<point x="32" y="560" type="line"/>
			<point x="32" y="500" type="line"/>
			<point x="232" y="-16" type="line"/>
			<point x="228" y="-26" type="line"/>
			<point x="216" y="-60" type="line" smooth="yes"/>
			<point x="204" y="-96"/>
			<point x="176" y="-112"/>
			<point x="144" y="-112" type="curve" smooth="yes"/>
			<point x="96" y="-112" type="line"/>
			<point x="80" y="-128" type="line"/>
			<point x="80" y="-184" type="line"/>
		</contour>
	</outline>
	<anchor name="bottom" x="280" y="0"/>
	<anchor name="top" x="276" y="576"/>
</glyph>
<glyph name="z" format="2">
	<unicode hex="007A"/>
	<advance width="532"/>
	<outline>
		<contour>
			<point x="64" y="0" type="line"/>
			<point x="468" y="0" type="line"/>
			<point x="484" y="16" type="line"/>
			<point x="484" y="72" type="line"/>
			<point x="468" y="88" type="line"/>
			<point x="176" y="88" type="line"/>
			<point x="176" y="104" type="line"/>
			<point x="456" y="452" type="line"/>
			<point x="472" y="480" type="line"/>
			<point x="472" y="560" type="line"/>
			<point x="456" y="576" type="line"/>
			<point x="72" y="576" type="line"/>
			<point x="56" y="560" type="line"/>
			<point x="56" y="504" type="line"/>
			<point x="72" y="488" type="line"/>
			<point x="360" y="488" type="line"/>
			<point x="360" y="476" type="line"/>
			<point x="56" y="112" type="line"/>
			<point x="48" y="88" type="line"/>
			<point x="48" y="16" type="line"/>
		</contour>
	</outline>
	<anchor name="bottom" x="276" y="0"/>
	<anchor name="center" x="276" y="260"/>
	<anchor name="top" x="276" y="576"/>
</glyph>
